P3
20 15
255
242
245
248
241
244
248
241
244
247
184
225
253
141
214
255
158
219
255
154
218
255
161
219
255
171
223
255
226
239
249
241
244
248
242
245
247
239
243
247
235
242
248
237
243
247
216
236
251
147
214
245
250
246
78
252
246
64
245
245
101
243
245
248
236
243
249
188
227
253
170
222
255
155
217
255
140
213
255
149
216
255
143
215
255
165
221
255
161
219
255
231
242
249
235
242
248
239
243
247
236
242
247
223
237
241
227
238
148
223
237
169
241
242
102
251
246
52
244
244
96
154
217
255
167
222
252
128
230
178
109
233
130
68
231
102
78
232
108
71
231
104
117
230
165
177
224
255
171
222
255
159
219
255
153
216
255
159
219
255
149
216
255
86
202
254
122
208
241
153
216
233
233
240
146
246
244
87
245
243
90
130
210
255
124
227
186
138
236
152
85
232
113
58
231
96
81
227
94
253
54
5
68
228
101
118
233
156
148
220
239
135
213
255
131
211
255
131
211
255
141
214
255
123
209
254
126
208
238
215
233
166
190
226
205
226
237
143
250
245
79
130
211
255
86
230
128
69
232
102
254
48
3
98
220
83
87
225
95
75
224
85
44
230
89
92
233
116
133
220
231
150
216
255
133
212
255
129
210
255
140
213
255
140
213
247
203
229
184
95
203
255
179
222
207
187
224
195
206
230
177
133
211
255
135
232
176
110
235
128
84
220
80
105
218
88
252
57
6
56
227
80
52
233
95
85
232
112
141
224
225
125
209
255
117
208
255
131
211
255
123
209
255
145
215
255
92
203
255
101
205
255
235
240
128
149
214
239
176
221
205
137
212
255
144
223
225
94
232
134
76
232
108
59
221
82
82
215
78
58
230
97
33
231
88
124
225
185
133
212
255
145
215
255
134
212
255
153
216
255
125
209
255
114
207
255
125
210
255
92
203
255
129
210
255
131
211
255
217
235
178
118
208
255
132
212
255
145
215
255
134
212
255
144
88
58
144
88
25
170
221
255
149
215
255
135
212
255
147
216
255
131
211
255
103
205
255
114
208
255
102
204
255
78
201
255
60
199
255
109
206
255
138
213
255
125
210
255
135
212
255
145
215
255
98
204
255
131
211
255
67
198
254
145
79
17
146
80
18
160
212
246
129
210
255
114
208
255
100
204
255
112
207
255
112
207
255
86
202
255
86
202
255
110
206
255
107
206
255
59
199
255
93
203
255
118
208
255
127
209
255
121
209
255
121
209
255
117
208
255
78
199
253
145
82
38
146
81
21
153
212
249
149
215
255
139
213
255
92
203
255
130
211
255
103
205
255
106
205
255
95
204
255
127
210
255
104
205
255
120
209
255
102
205
255
89
203
255
128
210
255
120
208
255
95
204
255
122
210
255
80
195
247
145
79
14
146
81
22
108
203
251
87
202
255
102
204
255
115
207
255
115
208
255
83
202
255
75
200
255
67
200
255
62
199
255
62
199
255
80
201
255
116
208
255
88
203
255
117
208
255
138
213
255
133
212
255
153
216
255
112
184
226
147
84
32
148
85
39
144
210
248
108
207
254
118
208
254
120
208
251
120
208
251
143
213
244
135
211
243
143
213
250
128
209
250
128
211
254
110
205
250
111
206
255
128
210
255
137
212
255
111
198
109
99
195
98
106
197
104
84
192
81
58
184
46
66
184
55
73
190
70
86
192
85
63
190
94
107
197
106
98
194
96
104
196
103
102
195
100
117
199
115
116
199
114
117
199
116
123
201
122
120
200
118
120
200
118
118
199
116
105
196
103
90
193
88
91
193
90
105
196
103
97
194
95
86
192
83
92
193
90
95
194
92
105
196
102
106
196
103
95
194
93
92
193
91
95
194
92
98
195
97
73
190
70
78
191
75
81
191
79
100
195
98
108
197
106
107
196
105
119
200
118
77
191
74
77
191
74
83
192
81
83
192
81
83
192
81
83
192
81
96
194
94
102
195
100
102
195
100
91
193
88
95
194
93
82
191
79
101
195
99
75
190
72
85
192
82
76
190
73
70
190
67
77
190
74
34
186
27
