P3
20 15
255
235
235
235
234
234
234
235
235
235
202
202
202
233
233
233
242
242
242
241
241
241
242
242
242
245
245
245
244
244
244
237
237
237
214
214
214
209
209
209
207
207
207
209
209
209
201
201
201
218
218
218
244
244
244
244
244
244
245
245
245
233
233
233
233
233
233
232
232
232
229
229
229
229
229
229
234
234
234
241
241
241
242
242
242
241
241
241
240
240
240
209
209
209
212
212
212
203
203
203
205
205
205
201
201
201
207
207
207
213
213
213
221
221
221
242
242
242
245
245
245
232
232
232
233
233
233
232
232
232
204
204
204
192
192
192
181
181
181
205
205
205
209
209
209
205
205
205
209
209
209
214
214
214
216
216
216
201
201
201
188
188
188
190
190
190
187
187
187
199
199
199
205
205
205
212
212
212
206
206
206
234
234
234
228
228
228
217
217
217
224
224
224
193
193
193
194
194
194
201
201
201
197
197
197
197
197
197
199
199
199
206
206
206
203
203
203
185
185
185
93
93
93
186
186
186
184
184
184
192
192
192
209
209
209
202
202
202
196
196
196
221
221
221
214
214
214
212
212
212
184
184
184
220
220
220
200
200
200
201
201
201
196
196
196
198
198
198
205
205
205
202
202
202
195
195
195
180
180
180
182
182
182
186
186
186
184
184
184
89
89
89
188
188
188
192
192
192
197
197
197
210
210
210
202
202
202
231
231
231
186
186
186
183
183
183
203
203
203
194
194
194
197
197
197
192
192
192
194
194
194
206
206
206
192
192
192
185
185
185
180
180
180
95
95
95
185
185
185
181
181
181
201
201
201
207
207
207
198
198
198
227
227
227
197
197
197
196
196
196
183
183
183
195
195
195
191
191
191
194
194
194
205
205
205
199
199
199
203
203
203
198
198
198
201
201
201
179
179
179
184
184
184
177
177
177
177
177
177
190
190
190
196
196
196
206
206
206
199
199
199
199
199
199
195
195
195
200
200
200
189
189
189
173
173
173
179
179
179
186
186
186
191
191
191
187
187
187
197
197
197
204
204
204
199
199
199
204
204
204
213
213
213
95
95
95
98
98
98
199
199
199
203
203
203
198
198
198
192
192
192
195
195
195
192
192
192
183
183
183
173
173
173
188
188
188
189
189
189
181
181
181
181
181
181
190
190
190
190
190
190
186
186
186
191
191
191
196
196
196
203
203
203
90
90
90
89
89
89
174
174
174
197
197
197
185
185
185
203
203
203
196
196
196
183
183
183
187
187
187
193
193
193
187
187
187
196
196
196
185
185
185
188
188
188
187
187
187
197
197
197
183
183
183
200
200
200
204
204
204
202
202
202
90
90
90
92
92
92
177
177
177
192
192
192
194
194
194
194
194
194
192
192
192
182
182
182
192
192
192
179
179
179
174
174
174
174
174
174
176
176
176
177
177
177
181
181
181
192
192
192
191
191
191
186
186
186
181
181
181
186
186
186
91
91
91
88
88
88
174
174
174
195
195
195
185
185
185
193
193
193
199
199
199
196
196
196
189
189
189
188
188
188
196
196
196
195
195
195
201
201
201
197
197
197
200
200
200
192
192
192
192
192
192
192
192
192
189
189
189
199
199
199
95
95
95
94
94
94
172
172
172
205
205
205
198
198
198
200
200
200
176
176
176
177
177
177
177
177
177
179
179
179
176
176
176
175
175
175
176
176
176
168
168
168
170
170
170
167
167
167
171
171
171
156
156
156
162
162
162
156
156
156
150
150
150
147
147
147
161
161
161
171
171
171
168
168
168
173
173
173
171
171
171
172
172
172
168
168
168
160
160
160
159
159
159
156
156
156
167
167
167
166
166
166
164
164
164
166
166
166
170
170
170
170
170
170
166
166
166
164
164
164
162
162
162
166
166
166
170
170
170
164
164
164
164
164
164
170
170
170
142
142
142
158
158
158
156
156
156
157
157
157
161
161
161
157
157
157
168
168
168
160
160
160
166
166
166
164
164
164
168
168
168
168
168
168
166
166
166
161
161
161
161
161
161
161
161
161
161
161
161
158
158
158
158
158
158
177
177
177
