P3
20 15
255
245
245
245
252
252
252
250
250
250
245
245
245
251
251
251
247
247
247
248
248
248
247
247
247
247
247
247
248
248
248
249
249
249
255
255
255
255
255
255
255
255
255
255
255
255
255
255
255
253
253
253
247
247
247
248
248
248
248
248
248
244
244
244
251
251
251
242
242
242
237
237
237
238
238
238
241
241
241
247
247
247
247
247
247
248
248
248
249
249
249
255
255
255
255
255
255
255
255
255
255
255
255
255
255
255
255
255
255
255
255
255
253
253
253
249
249
249
248
248
248
245
245
245
246
246
246
240
240
240
233
233
233
241
241
241
254
254
254
255
255
255
255
255
255
255
255
255
255
255
255
255
255
255
255
255
255
230
230
230
231
231
231
232
232
232
231
231
231
233
233
233
230
230
230
252
252
252
255
255
255
250
250
250
237
237
237
226
226
226
233
233
233
238
238
238
254
254
254
255
255
255
255
255
255
255
255
255
255
255
255
239
239
239
233
233
233
228
228
228
253
253
253
227
227
227
231
231
231
232
232
232
236
236
236
227
227
227
255
255
255
230
230
230
224
224
224
222
222
222
255
255
255
229
229
229
247
247
247
255
255
255
255
255
255
255
255
255
255
255
255
231
231
231
233
233
233
230
230
230
224
224
224
225
225
225
220
220
220
254
254
254
232
232
232
230
230
230
255
255
255
221
221
221
239
239
239
240
240
240
255
255
255
255
255
255
255
255
255
255
255
255
255
255
255
255
255
255
255
255
255
225
225
225
232
232
232
233
233
233
227
227
227
252
252
252
218
218
218
220
220
220
235
235
235
232
232
232
255
255
255
235
235
235
255
255
255
255
255
255
255
255
255
255
255
255
255
255
255
255
255
255
255
255
255
255
255
255
255
255
255
255
255
255
225
225
225
231
231
231
230
230
230
215
215
215
221
221
221
232
232
232
232
232
232
225
225
225
255
255
255
255
255
255
255
255
255
255
255
255
255
255
255
255
255
255
255
255
255
255
255
255
255
255
255
255
255
255
255
255
255
255
255
255
255
255
255
255
255
255
255
255
255
144
144
144
144
144
144
255
255
255
255
255
255
255
255
255
255
255
255
255
255
255
255
255
255
255
255
255
255
255
255
255
255
255
255
255
255
255
255
255
255
255
255
255
255
255
255
255
255
255
255
255
255
255
255
255
255
255
246
246
246
146
146
146
145
145
145
254
254
254
255
255
255
255
255
255
255
255
255
255
255
255
255
255
255
255
255
255
255
255
255
255
255
255
255
255
255
255
255
255
255
255
255
255
255
255
255
255
255
255
255
255
255
255
255
255
255
255
249
249
249
146
146
146
145
145
145
253
253
253
255
255
255
255
255
255
255
255
255
255
255
255
255
255
255
255
255
255
255
255
255
255
255
255
255
255
255
255
255
255
255
255
255
255
255
255
255
255
255
255
255
255
255
255
255
255
255
255
251
251
251
146
146
146
145
145
145
247
247
247
255
255
255
255
255
255
255
255
255
255
255
255
255
255
255
255
255
255
250
250
250
254
254
254
250
250
250
250
250
250
243
243
243
244
244
244
251
251
251
251
251
251
254
254
254
254
254
254
248
248
248
148
148
148
147
147
147
226
226
226
255
255
255
255
255
255
255
255
255
199
199
199
200
200
200
200
200
200
201
201
201
199
199
199
199
199
199
199
199
199
195
195
195
196
196
196
194
194
194
197
197
197
190
190
190
192
192
192
190
190
190
184
184
184
184
184
184
192
192
192
197
197
197
195
195
195
198
198
198
196
196
196
197
197
197
195
195
195
191
191
191
191
191
191
190
190
190
195
195
195
194
194
194
193
193
193
194
194
194
196
196
196
196
196
196
194
194
194
193
193
193
192
192
192
194
194
194
196
196
196
193
193
193
193
193
193
196
196
196
186
186
186
190
190
190
190
190
190
190
190
190
192
192
192
190
190
190
195
195
195
191
191
191
194
194
194
193
193
193
195
195
195
195
195
195
194
194
194
192
192
192
192
192
192
192
192
192
192
192
192
191
191
191
191
191
191
200
200
200
