P3
# Created by GIMP version 2.10.30 PNM plug-in
20 15
255
245
245
101
252
246
64
250
246
78
147
214
245
216
236
251
237
243
247
235
242
248
239
243
247
242
245
247
241
244
248
226
239
249
171
223
255
161
219
255
154
218
255
158
219
255
141
214
255
184
225
253
241
244
247
241
244
248
242
245
248
244
244
96
251
246
52
241
242
102
223
237
169
227
238
148
223
237
241
236
242
247
239
243
247
235
242
248
231
242
249
161
219
255
165
221
255
143
215
255
149
216
255
140
213
255
155
217
255
170
222
255
188
227
253
236
243
249
243
245
248
245
243
90
246
244
87
233
240
146
153
216
233
122
208
241
86
202
254
149
216
255
159
219
255
153
216
255
159
219
255
171
222
255
177
224
255
117
230
165
71
231
104
78
232
108
68
231
102
109
233
130
128
230
178
167
222
252
154
217
255
250
245
79
226
237
143
190
226
205
215
233
166
126
208
238
123
209
254
141
214
255
131
211
255
131
211
255
135
213
255
148
220
239
118
233
156
68
228
101
253
54
5
81
227
94
58
231
96
85
232
113
138
236
152
124
227
186
130
210
255
206
230
177
187
224
195
179
222
207
95
203
255
203
229
184
140
213
247
140
213
255
129
210
255
133
212
255
150
216
255
133
220
231
92
233
116
44
230
89
75
224
85
87
225
95
98
220
83
254
48
3
69
232
102
86
230
128
130
211
255
176
221
205
149
214
239
235
240
128
101
205
255
92
203
255
145
215
255
123
209
255
131
211
255
117
208
255
125
209
255
141
224
225
85
232
112
52
233
95
56
227
80
252
57
6
105
218
88
84
220
80
110
235
128
135
232
176
133
211
255
217
235
178
131
211
255
129
210
255
92
203
255
125
210
255
114
207
255
125
209
255
153
216
255
134
212
255
145
215
255
133
212
255
124
225
185
33
231
88
58
230
97
82
215
78
59
221
82
76
232
108
94
232
134
144
223
225
137
212
255
135
212
255
125
210
255
138
213
255
109
206
255
60
199
255
78
201
255
102
204
255
114
208
255
103
205
255
131
211
255
147
216
255
135
212
255
149
215
255
170
221
255
144
88
25
144
88
58
134
212
255
145
215
255
132
212
255
118
208
255
127
209
255
118
208
255
93
203
255
59
199
255
107
206
255
110
206
255
86
202
255
86
202
255
112
207
255
112
207
255
100
204
255
114
208
255
129
210
255
160
212
246
146
80
18
145
79
17
67
198
254
131
211
255
98
204
255
145
215
255
128
210
255
89
203
255
102
205
255
120
209
255
104
205
255
127
210
255
95
204
255
106
205
255
103
205
255
130
211
255
92
203
255
139
213
255
149
215
255
153
212
249
146
81
21
145
82
38
78
199
253
117
208
255
121
209
255
121
209
255
117
208
255
88
203
255
116
208
255
80
201
255
62
199
255
62
199
255
67
200
255
75
200
255
83
202
255
115
208
255
115
207
255
102
204
255
87
202
255
108
203
251
146
81
22
145
79
14
80
195
247
122
210
255
95
204
255
120
208
255
137
212
255
128
210
255
111
206
255
110
205
250
128
211
254
128
209
250
143
213
250
135
211
243
143
213
244
120
208
251
120
208
251
118
208
254
108
207
254
144
210
248
148
85
39
147
84
32
112
184
226
153
216
255
133
212
255
138
213
255
118
199
116
120
200
118
120
200
118
123
201
122
117
199
116
116
199
114
117
199
115
102
195
100
104
196
103
98
194
96
107
197
106
63
190
94
86
192
85
73
190
70
66
184
55
58
184
46
84
192
81
106
197
104
99
195
98
111
198
109
107
196
105
108
197
106
100
195
98
81
191
79
78
191
75
73
190
70
98
195
97
95
194
92
92
193
91
95
194
93
106
196
103
105
196
102
95
194
92
92
193
90
86
192
83
97
194
95
105
196
103
91
193
90
90
193
88
105
196
103
34
186
27
77
190
74
70
190
67
76
190
73
85
192
82
75
190
72
101
195
99
82
191
79
95
194
93
91
193
88
102
195
100
102
195
100
96
194
94
83
192
81
83
192
81
83
192
81
83
192
81
77
191
74
77
191
74
119
200
118
